<?xml version="1.0" encoding="UTF-8" standalone="no"?>
<svg
   xmlns:dc="http://purl.org/dc/elements/1.1/"
   xmlns:cc="http://creativecommons.org/ns#"
   xmlns:rdf="http://www.w3.org/1999/02/22-rdf-syntax-ns#"
   xmlns:svg="http://www.w3.org/2000/svg"
   xmlns="http://www.w3.org/2000/svg"
   xmlns:xlink="http://www.w3.org/1999/xlink"
   version="1.1"
   id="svg4145"
   viewBox="0 0 800.00001 800.00001"
   height="800"
   width="800">
  <defs
     id="defs4147">
    <linearGradient
       id="linearGradient4972">
      <stop
         id="stop4974"
         offset="0"
         style="stop-color:#000000;stop-opacity:1;" />
      <stop
         id="stop4976"
         offset="1"
         style="stop-color:#000000;stop-opacity:0.42" />
    </linearGradient>
    <linearGradient
       gradientUnits="userSpaceOnUse"
       y2="837.57996"
       x2="-76.698151"
       y1="434.19009"
       x1="378.39142"
       id="linearGradient4978"
       xlink:href="#linearGradient4972" />
    <mask
       id="mask4982"
       maskUnits="userSpaceOnUse">
      <circle
         style="color:#000000;clip-rule:nonzero;display:inline;overflow:visible;visibility:visible;opacity:1;isolation:auto;mix-blend-mode:normal;color-interpolation:sRGB;color-interpolation-filters:linearRGB;solid-color:#000000;solid-opacity:1;fill:#ffffff;fill-opacity:1;fill-rule:nonzero;stroke:none;stroke-width:0.40000001;stroke-miterlimit:4;stroke-dasharray:none;stroke-opacity:1;color-rendering:auto;image-rendering:auto;shape-rendering:auto;text-rendering:auto;enable-background:accumulate"
         id="circle4984"
         cx="400"
         cy="400"
         r="400" />
    </mask>
    <mask
       id="mask4986"
       maskUnits="userSpaceOnUse">
      <circle
         style="color:#000000;clip-rule:nonzero;display:inline;overflow:visible;visibility:visible;opacity:1;isolation:auto;mix-blend-mode:normal;color-interpolation:sRGB;color-interpolation-filters:linearRGB;solid-color:#000000;solid-opacity:1;fill:#ffffff;fill-opacity:1;fill-rule:nonzero;stroke:none;stroke-width:0.40000001;stroke-miterlimit:4;stroke-dasharray:none;stroke-opacity:1;color-rendering:auto;image-rendering:auto;shape-rendering:auto;text-rendering:auto;enable-background:accumulate"
         id="circle4988"
         cx="400"
         cy="400"
         r="400" />
    </mask>
  </defs>
  <metadata
     id="metadata4150">
    <rdf:RDF>
      <cc:Work
         rdf:about="">
        <dc:format>image/svg+xml</dc:format>
        <dc:type
           rdf:resource="http://purl.org/dc/dcmitype/StillImage" />
        <dc:title></dc:title>
      </cc:Work>
    </rdf:RDF>
  </metadata>
  <circle
     r="400"
     cy="400"
     cx="400"
     id="circle4980"
     style="color:#000000;clip-rule:nonzero;display:inline;overflow:visible;visibility:visible;opacity:1;isolation:auto;mix-blend-mode:normal;color-interpolation:sRGB;color-interpolation-filters:linearRGB;solid-color:#000000;solid-opacity:1;fill:#1c8adb;fill-opacity:1;fill-rule:nonzero;stroke:none;stroke-width:0.40000001;stroke-miterlimit:4;stroke-dasharray:none;stroke-opacity:1;color-rendering:auto;image-rendering:auto;shape-rendering:auto;text-rendering:auto;enable-background:accumulate" />
  <path
     mask="url(#mask4986)"
     id="path4156"
     d="m 361.47461,213.51367 c -25.51499,-0.19085 -51.02813,8.24881 -76.54297,34.59571 l -67.51562,67.50781 c -2.98812,-0.82508 -6.3536,-1.86011 -10.32618,-2.96094 L 9.4493226,510.29678 C 15.296244,562.80299 48.329944,604.43448 75.522225,648.40254 184.08378,539.81497 291.88597,431.99207 395.17763,328.76165 c -5.14156,-4.13809 -9.30705,-8.12241 -12.64257,-11.96289 l 81.66601,-78.3418 C 429.95934,229.5637 395.71644,213.7698 361.47461,213.51367 Z m 204.96289,16.83008 c -9.50579,-0.17375 -18.89085,2.8241 -26.74414,9.98047 L 421.1543,357.27539 407.30859,343.42969 C 303.78051,446.95868 196.40382,554.33594 88.929356,661.81071 157.31099,750.27862 251.5995,792.11414 365.1564,799.26657 L 585.50051,578.92391 c 15.30808,-14.01143 20.72262,-38.01273 1.17383,-56.11719 L 490.68945,426.81055 608.43359,309.06641 c 27.42832,-36.97961 -8.04696,-78.10203 -41.99609,-78.72266 z"
     style="opacity:0.42000002;fill:url(#linearGradient4978);fill-opacity:1;fill-rule:evenodd;stroke:none;stroke-width:1;stroke-linecap:butt;stroke-linejoin:miter;stroke-opacity:1" />
  <path
     mask="url(#mask4982)"
     style="fill:#ffffff;fill-rule:evenodd;stroke:none;stroke-width:1px;stroke-linecap:butt;stroke-linejoin:miter;stroke-opacity:1"
     d="m 361.47509,213.51272 c -38.80741,-0.29028 -77.61429,19.37684 -116.4217,91.66545 -13.18894,16.96889 -18.64764,12.83034 -37.96335,7.47781 l -25.30818,25.30819 76.78763,76.78762 23.5831,-23.58204 c 13.41949,-53.19876 32.28698,-32.9072 57.23111,-6.61474 l 55.79373,-55.79372 c -69.91853,-56.27262 36.33595,-84.86071 69.02319,-90.30479 -34.24183,-8.89333 -68.4837,-24.68765 -102.72553,-24.94378 z m 204.96306,16.83199 c -9.50579,-0.17375 -18.89228,2.82327 -26.74557,9.97964 l -99.84651,98.22372 18.9609,18.96196 c 12.45949,-11.90995 87.39699,-87.49182 87.39699,-87.49182 l 9.15173,9.1528 -87.44919,87.4492 14.15753,14.15754 c 9.4496,-8.8237 88.74381,-88.80667 88.74381,-88.80667 l 9.15173,9.15173 -88.7747,88.77577 18.20863,18.19799 99.04098,-99.03032 c 27.42832,-36.97961 -8.0472,-78.10091 -41.99633,-78.72154 z m -159.12873,113.08556 -54.90722,54.90828 177.33098,181.397 c 39.90194,34.44275 94.50891,-22.14724 56.94022,-56.94022 L 407.30942,343.43027 Z m -38.23186,112.66256 -85.0049,79.71674 -17.48835,35.38479 12.20125,9.76227 40.46944,-27.04711 73.8191,-73.82016 -23.99654,-23.99653 z"
     id="path4194" />
</svg>
