<?xml version="1.0" encoding="UTF-8" standalone="no"?>
<svg
   xmlns:dc="http://purl.org/dc/elements/1.1/"
   xmlns:cc="http://creativecommons.org/ns#"
   xmlns:rdf="http://www.w3.org/1999/02/22-rdf-syntax-ns#"
   xmlns:svg="http://www.w3.org/2000/svg"
   xmlns="http://www.w3.org/2000/svg"
   xmlns:xlink="http://www.w3.org/1999/xlink"
   version="1.1"
   id="svg4239"
   viewBox="0 0 800.00001 800.00001"
   height="800"
   width="800">
  <defs
     id="defs4241">
    <linearGradient
       id="linearGradient5627">
      <stop
         id="stop5629"
         offset="0"
         style="stop-color:#000000;stop-opacity:0.42" />
      <stop
         id="stop5631"
         offset="1"
         style="stop-color:#000000;stop-opacity:0;" />
    </linearGradient>
    <linearGradient
       gradientUnits="userSpaceOnUse"
       y2="728.57147"
       x2="124.73258"
       y1="402.85721"
       x1="437.10602"
       id="linearGradient5633"
       xlink:href="#linearGradient5627" />
    <mask
       id="mask5635"
       maskUnits="userSpaceOnUse">
      <circle
         style="color:#000000;clip-rule:nonzero;display:inline;overflow:visible;visibility:visible;opacity:1;isolation:auto;mix-blend-mode:normal;color-interpolation:sRGB;color-interpolation-filters:linearRGB;solid-color:#000000;solid-opacity:1;fill:#ffffff;fill-opacity:1;fill-rule:nonzero;stroke:none;stroke-width:60;stroke-miterlimit:4;stroke-dasharray:none;stroke-opacity:1;color-rendering:auto;image-rendering:auto;shape-rendering:auto;text-rendering:auto;enable-background:accumulate"
         id="circle5637"
         cx="400"
         cy="652.36218"
         r="400" />
    </mask>
    <mask
       id="mask5639"
       maskUnits="userSpaceOnUse">
      <circle
         style="color:#000000;clip-rule:nonzero;display:inline;overflow:visible;visibility:visible;opacity:1;isolation:auto;mix-blend-mode:normal;color-interpolation:sRGB;color-interpolation-filters:linearRGB;solid-color:#000000;solid-opacity:1;fill:#ffffff;fill-opacity:1;fill-rule:nonzero;stroke:none;stroke-width:60;stroke-miterlimit:4;stroke-dasharray:none;stroke-opacity:1;color-rendering:auto;image-rendering:auto;shape-rendering:auto;text-rendering:auto;enable-background:accumulate"
         id="circle5641"
         cx="400"
         cy="400.00003"
         r="400" />
    </mask>
  </defs>
  <metadata
     id="metadata4244">
    <rdf:RDF>
      <cc:Work
         rdf:about="">
        <dc:format>image/svg+xml</dc:format>
        <dc:type
           rdf:resource="http://purl.org/dc/dcmitype/StillImage" />
        <dc:title></dc:title>
      </cc:Work>
    </rdf:RDF>
  </metadata>
  <g
     id="layer1"
     transform="translate(0,-252.36216)">
    <circle
       r="400"
       cy="652.36218"
       cx="400"
       id="circle4795"
       style="color:#000000;clip-rule:nonzero;display:inline;overflow:visible;visibility:visible;opacity:1;isolation:auto;mix-blend-mode:normal;color-interpolation:sRGB;color-interpolation-filters:linearRGB;solid-color:#000000;solid-opacity:1;fill:#1c8adb;fill-opacity:1;fill-rule:nonzero;stroke:none;stroke-width:60;stroke-miterlimit:4;stroke-dasharray:none;stroke-opacity:1;color-rendering:auto;image-rendering:auto;shape-rendering:auto;text-rendering:auto;enable-background:accumulate" />
    <path
       mask="url(#mask5639)"
       id="path4810"
       transform="translate(0,252.36216)"
       d="m 489.34766,140.41211 c -12.8841,0.004 -24.47054,5.55697 -32.5,14.39844 L 37.274512,574.38231 C 104.35834,692.95995 207.61982,812.15075 438.07607,799.10165 L 577.5897,659.58803 492.35728,555.36537 l -39.79297,-48.66406 0,-120.07422 41.76367,-38.80664 0,-19.36328 0,-9.66797 -7.83007,0 -33.9336,0 -8.17773,0 -74.55274,74.62696 0,-27.53711 149.03907,-149.04883 c 8.83961,-8.02931 14.39203,-19.61545 14.39648,-32.49805 0.003,-11.64973 -4.62372,-22.82296 -12.86133,-31.06055 -8.23762,-8.23759 -19.41081,-12.86244 -31.06054,-12.85937 z"
       style="color:#000000;clip-rule:nonzero;display:inline;overflow:visible;visibility:visible;opacity:1;isolation:auto;mix-blend-mode:normal;color-interpolation:sRGB;color-interpolation-filters:linearRGB;solid-color:#000000;solid-opacity:1;fill:url(#linearGradient5633);fill-opacity:1;fill-rule:nonzero;stroke:none;stroke-width:60;stroke-miterlimit:4;stroke-dasharray:none;stroke-opacity:1;color-rendering:auto;image-rendering:auto;shape-rendering:auto;text-rendering:auto;enable-background:accumulate" />
    <path
       mask="url(#mask5635)"
       style="color:#000000;clip-rule:nonzero;display:inline;overflow:visible;visibility:visible;opacity:1;isolation:auto;mix-blend-mode:normal;color-interpolation:sRGB;color-interpolation-filters:linearRGB;solid-color:#000000;solid-opacity:1;fill:#ffffff;fill-opacity:1;fill-rule:nonzero;stroke:none;stroke-width:60;stroke-miterlimit:4;stroke-dasharray:none;stroke-opacity:1;color-rendering:auto;image-rendering:auto;shape-rendering:auto;text-rendering:auto;enable-background:accumulate"
       d="m 489.34714,392.77336 a 43.910329,43.910329 0 0 0 -43.89518,43.92177 43.910329,43.910329 0 0 0 43.89518,43.89517 43.910329,43.910329 0 0 0 43.9219,-43.89517 43.910329,43.910329 0 0 0 -43.9219,-43.92177 z m 0,18.93776 a 24.968618,24.968618 0 0 1 24.98414,24.98401 24.968618,24.968618 0 0 1 -24.98414,24.95742 24.968618,24.968618 0 0 1 -24.95728,-24.95742 24.968618,24.968618 0 0 1 24.95728,-24.98401 z m -93.8366,79.21369 a 28.412564,28.412564 0 0 0 -28.41994,28.42007 28.412564,28.412564 0 0 0 28.41994,28.41994 28.412564,28.412564 0 0 0 28.39348,-28.41994 28.412564,28.412564 0 0 0 -28.39348,-28.42007 z m -73.0342,80.22586 0,9.66873 0,18.08542 7.83082,0 0,-18.08542 31.34978,0 0,178.2708 -39.76659,48.63633 -85.23336,104.22447 170.4667,0 170.46669,0 -85.23335,-104.22447 -39.79333,-48.66292 0,-178.24421 33.9335,0 0,19.36392 7.83084,0 0,-19.36392 0,-9.66873 -7.83084,0 -33.9335,0 -8.17708,0 0,190.39002 40.29941,49.30224 77.56235,94.87534 -155.12469,0 -155.15143,0 77.56235,-94.87534 40.29942,-49.27565 0,-190.41661 -8.17709,0 -31.34978,0 -7.83082,0 z"
       id="path4214" />
  </g>
</svg>
