<?xml version="1.0" encoding="UTF-8" standalone="no"?>
<svg
   xmlns:dc="http://purl.org/dc/elements/1.1/"
   xmlns:cc="http://creativecommons.org/ns#"
   xmlns:rdf="http://www.w3.org/1999/02/22-rdf-syntax-ns#"
   xmlns:svg="http://www.w3.org/2000/svg"
   xmlns="http://www.w3.org/2000/svg"
   xmlns:xlink="http://www.w3.org/1999/xlink"
   version="1.1"
   id="svg4145"
   viewBox="0 0 800.00001 800.00001"
   height="800"
   width="800">
  <defs
     id="defs4147">
    <linearGradient
       id="linearGradient4965">
      <stop
         id="stop4967"
         offset="0"
         style="stop-color:#000000;stop-opacity:0.42" />
      <stop
         id="stop4969"
         offset="1"
         style="stop-color:#000000;stop-opacity:0;" />
    </linearGradient>
    <linearGradient
       gradientUnits="userSpaceOnUse"
       y2="862.82025"
       x2="-98.136787"
       y1="425.5321"
       x1="354.069"
       id="linearGradient4971"
       xlink:href="#linearGradient4965" />
    <mask
       id="mask4975"
       maskUnits="userSpaceOnUse">
      <circle
         style="color:#000000;clip-rule:nonzero;display:inline;overflow:visible;visibility:visible;opacity:1;isolation:auto;mix-blend-mode:normal;color-interpolation:sRGB;color-interpolation-filters:linearRGB;solid-color:#000000;solid-opacity:1;fill:#ffffff;fill-opacity:1;fill-rule:nonzero;stroke:none;stroke-width:0.40000001;stroke-miterlimit:4;stroke-dasharray:none;stroke-opacity:1;color-rendering:auto;image-rendering:auto;shape-rendering:auto;text-rendering:auto;enable-background:accumulate"
         id="circle4977"
         cx="400"
         cy="400"
         r="400" />
    </mask>
    <mask
       id="mask4979"
       maskUnits="userSpaceOnUse">
      <circle
         style="color:#000000;clip-rule:nonzero;display:inline;overflow:visible;visibility:visible;opacity:1;isolation:auto;mix-blend-mode:normal;color-interpolation:sRGB;color-interpolation-filters:linearRGB;solid-color:#000000;solid-opacity:1;fill:#ffffff;fill-opacity:1;fill-rule:nonzero;stroke:none;stroke-width:0.40000001;stroke-miterlimit:4;stroke-dasharray:none;stroke-opacity:1;color-rendering:auto;image-rendering:auto;shape-rendering:auto;text-rendering:auto;enable-background:accumulate"
         id="circle4981"
         cx="400"
         cy="400"
         r="400" />
    </mask>
  </defs>
  <metadata
     id="metadata4150">
    <rdf:RDF>
      <cc:Work
         rdf:about="">
        <dc:format>image/svg+xml</dc:format>
        <dc:type
           rdf:resource="http://purl.org/dc/dcmitype/StillImage" />
        <dc:title></dc:title>
      </cc:Work>
    </rdf:RDF>
  </metadata>
  <circle
     r="400"
     cy="400"
     cx="400"
     id="circle4973"
     style="color:#000000;clip-rule:nonzero;display:inline;overflow:visible;visibility:visible;opacity:1;isolation:auto;mix-blend-mode:normal;color-interpolation:sRGB;color-interpolation-filters:linearRGB;solid-color:#000000;solid-opacity:1;fill:#1c8adb;fill-opacity:1;fill-rule:nonzero;stroke:none;stroke-width:0.40000001;stroke-miterlimit:4;stroke-dasharray:none;stroke-opacity:1;color-rendering:auto;image-rendering:auto;shape-rendering:auto;text-rendering:auto;enable-background:accumulate" />
  <path
     mask="url(#mask4979)"
     id="path4149"
     d="m 397.92773,254.94531 c -92.01288,0.19926 -186.17541,42.4093 -282.84179,133.6875 L 9.0627651,494.65598 C 43.415516,662.96564 147.87455,746.25279 288.18238,786.06374 L 664.66211,409.58398 c 6.75064,-6.75938 13.50132,-13.72586 20.25195,-20.95117 -90.68424,-83.88454 -183.25157,-130.99165 -278.08984,-133.57617 -2.96369,-0.0808 -5.92833,-0.11776 -8.89649,-0.11133 z"
     style="color:#000000;clip-rule:nonzero;display:inline;overflow:visible;visibility:visible;opacity:1;isolation:auto;mix-blend-mode:normal;color-interpolation:sRGB;color-interpolation-filters:linearRGB;solid-color:#000000;solid-opacity:1;fill:url(#linearGradient4971);fill-opacity:1;fill-rule:nonzero;stroke:none;stroke-width:0.40000001;stroke-miterlimit:4;stroke-dasharray:none;stroke-opacity:1;color-rendering:auto;image-rendering:auto;shape-rendering:auto;text-rendering:auto;enable-background:accumulate" />
  <path
     mask="url(#mask4975)"
     style="color:#000000;clip-rule:nonzero;display:inline;overflow:visible;visibility:visible;opacity:1;isolation:auto;mix-blend-mode:normal;color-interpolation:sRGB;color-interpolation-filters:linearRGB;solid-color:#000000;solid-opacity:1;fill:#ffffff;fill-opacity:1;fill-rule:nonzero;stroke:none;stroke-width:0.40000001;stroke-miterlimit:4;stroke-dasharray:none;stroke-opacity:1;color-rendering:auto;image-rendering:auto;shape-rendering:auto;text-rendering:auto;enable-background:accumulate"
     d="m 397.92853,254.9448 c -92.01288,0.19926 -186.17609,42.41016 -282.84247,133.68836 189.94059,223.22639 379.88727,203.29657 569.82788,0 C 594.2297,304.74862 501.6634,257.64201 406.82513,255.05749 c -2.96369,-0.0808 -5.92844,-0.11912 -8.8966,-0.11269 z m 0.58847,40.31922 c 2.15327,-0.005 4.30505,0.0221 6.45508,0.0807 68.8011,1.87497 135.95329,36.0481 201.74078,96.90274 -137.79378,147.48296 -275.59298,161.94118 -413.38676,0 70.12726,-66.21842 138.43945,-96.8389 205.1909,-96.98343 z m 2.21337,21.95423 a 85.649213,85.649213 0 0 0 -85.65225,85.65365 85.649213,85.649213 0 0 0 85.65225,85.65225 85.649213,85.649213 0 0 0 85.65364,-85.65225 85.649213,85.649213 0 0 0 -2.7281,-21.16961 l -82.92554,21.16961 c 0,0 35.76854,-49.67217 50.28564,-69.2224 a 85.649213,85.649213 0 0 0 -50.28564,-16.43125 z"
     id="path4225" />
</svg>
