<?xml version="1.0" encoding="UTF-8" standalone="no"?>
<svg
   xmlns:dc="http://purl.org/dc/elements/1.1/"
   xmlns:cc="http://creativecommons.org/ns#"
   xmlns:rdf="http://www.w3.org/1999/02/22-rdf-syntax-ns#"
   xmlns:svg="http://www.w3.org/2000/svg"
   xmlns="http://www.w3.org/2000/svg"
   xmlns:xlink="http://www.w3.org/1999/xlink"
   version="1.1"
   id="svg4145"
   viewBox="0 0 800.00001 800.00001"
   height="800"
   width="800">
  <defs
     id="defs4147">
    <linearGradient
       id="linearGradient5572">
      <stop
         id="stop5574"
         offset="0"
         style="stop-opacity:0" />
      <stop
         id="stop5576"
         offset="1"
         style="stop-color:#000000;stop-opacity:1" />
    </linearGradient>
    <mask
       id="mask5560"
       maskUnits="userSpaceOnUse">
      <ellipse
         style="color:#000000;clip-rule:nonzero;display:inline;overflow:visible;visibility:visible;opacity:1;isolation:auto;mix-blend-mode:normal;color-interpolation:sRGB;color-interpolation-filters:linearRGB;solid-color:#000000;solid-opacity:1;fill:#ffffff;fill-opacity:1;fill-rule:nonzero;stroke:#273b50;stroke-width:0.05530062;stroke-miterlimit:4;stroke-dasharray:none;stroke-opacity:1;color-rendering:auto;image-rendering:auto;shape-rendering:auto;text-rendering:auto;enable-background:accumulate"
         id="ellipse5562"
         cx="399.99997"
         cy="652.36218"
         rx="399.97232"
         ry="399.97235" />
    </mask>
    <mask
       id="mask5564"
       maskUnits="userSpaceOnUse">
      <ellipse
         style="color:#000000;clip-rule:nonzero;display:inline;overflow:visible;visibility:visible;opacity:1;isolation:auto;mix-blend-mode:normal;color-interpolation:sRGB;color-interpolation-filters:linearRGB;solid-color:#000000;solid-opacity:1;fill:#ffffff;fill-opacity:1;fill-rule:nonzero;stroke:#273b50;stroke-width:0.08455178;stroke-miterlimit:4;stroke-dasharray:none;stroke-opacity:1;color-rendering:auto;image-rendering:auto;shape-rendering:auto;text-rendering:auto;enable-background:accumulate"
         id="ellipse5566"
         cx="399.96173"
         cy="652.40039"
         rx="611.53699"
         ry="611.53705" />
    </mask>
    <mask
       id="mask5568"
       maskUnits="userSpaceOnUse">
      <ellipse
         style="color:#000000;clip-rule:nonzero;display:inline;overflow:visible;visibility:visible;opacity:1;isolation:auto;mix-blend-mode:normal;color-interpolation:sRGB;color-interpolation-filters:linearRGB;solid-color:#000000;solid-opacity:1;fill:#ffffff;fill-opacity:1;fill-rule:nonzero;stroke:#273b50;stroke-width:0.05530062;stroke-miterlimit:4;stroke-dasharray:none;stroke-opacity:1;color-rendering:auto;image-rendering:auto;shape-rendering:auto;text-rendering:auto;enable-background:accumulate"
         id="ellipse5570"
         cx="399.99997"
         cy="400.00003"
         rx="399.97232"
         ry="399.97235" />
    </mask>
    <linearGradient
       gradientUnits="userSpaceOnUse"
       y2="348.97751"
       x2="450.80469"
       y1="750.93323"
       x1="92.427216"
       id="linearGradient5580"
       xlink:href="#linearGradient5572" />
  </defs>
  <metadata
     id="metadata4150">
    <rdf:RDF>
      <cc:Work
         rdf:about="">
        <dc:format>image/svg+xml</dc:format>
        <dc:type
           rdf:resource="http://purl.org/dc/dcmitype/StillImage" />
        <dc:title></dc:title>
      </cc:Work>
    </rdf:RDF>
  </metadata>
  <g
     id="layer1"
     transform="translate(0,-252.36216)">
    <ellipse
       ry="399.97235"
       rx="399.97232"
       cy="652.36218"
       cx="399.99997"
       id="ellipse5544"
       style="color:#000000;clip-rule:nonzero;display:inline;overflow:visible;visibility:visible;opacity:1;isolation:auto;mix-blend-mode:normal;color-interpolation:sRGB;color-interpolation-filters:linearRGB;solid-color:#000000;solid-opacity:1;fill:#1c8adb;fill-opacity:1;fill-rule:nonzero;stroke:#273b50;stroke-width:0.05530062;stroke-miterlimit:4;stroke-dasharray:none;stroke-opacity:1;color-rendering:auto;image-rendering:auto;shape-rendering:auto;text-rendering:auto;enable-background:accumulate" />
    <path
       mask="url(#mask5568)"
       id="path4727"
       transform="translate(0,252.36216)"
       d="M 374.50781,138.35742 320.26562,194.9668 291.36523,160.60938 247.20312,186.10742 0.79553649,432.51428 C 12.764119,646.66061 187.63999,792.34806 367.40106,799.32672 l 246.51105,-246.51031 25.49609,-44.16407 -34.44922,-28.97851 56.6836,-54.26758 0,-50.99609 -55.81641,-9.91211 c -1.93087,-10.85247 -4.7104,-21.53348 -8.31445,-31.94532 l 41.83008,-41.37109 -25.49805,-44.16602 -53.61328,19.43946 c -8.05309,-9.61324 -16.94947,-18.48605 -26.58399,-26.51367 l 19.26954,-53.85352 -44.16407,-25.49609 -41.46093,41.96093 c -10.82626,-3.45057 -22.04403,-6.52749 -31.61329,-8.28125 l -10.17382,-55.91406 z"
       style="color:#000000;clip-rule:nonzero;display:inline;overflow:visible;visibility:visible;opacity:0.46500017;isolation:auto;mix-blend-mode:normal;color-interpolation:sRGB;color-interpolation-filters:linearRGB;solid-color:#000000;solid-opacity:1;fill:url(#linearGradient5580);fill-opacity:1;fill-rule:nonzero;stroke:#273b50;stroke-width:0.03270222;stroke-miterlimit:4;stroke-dasharray:none;stroke-opacity:1;color-rendering:auto;image-rendering:auto;shape-rendering:auto;text-rendering:auto;enable-background:accumulate" />
    <g
       mask="url(#mask5564)"
       style="fill:#404040"
       id="layer1-7"
       transform="matrix(0.65404438,0,0,0.65404438,138.40725,225.66336)" />
    <path
       mask="url(#mask5560)"
       id="rect4135"
       d="m 374.50833,390.71941 -9.94096,55.98083 a 210.25631,210.25574 0 0 0 -36.7619,9.59095 l -36.43998,-43.32022 -44.16332,25.49879 18.90725,52.83835 a 210.25631,210.25574 0 0 0 -27.53502,27.05342 l -52.30183,-18.96473 -25.49751,44.16333 41.93165,35.57644 a 210.25631,210.25574 0 0 0 -10.55541,38.09169 l -53.74405,9.54369 0,50.9963 53.72745,9.77489 a 210.25631,210.25574 0 0 0 10.1083,38.51325 l -41.53565,34.94028 25.49751,44.16461 50.90561,-18.21488 a 210.25631,210.25574 0 0 0 28.37811,28.51735 l -18.35412,50.62457 44.16333,25.49751 34.89812,-41.13454 a 210.25631,210.25574 0 0 0 38.88881,10.43406 l 9.42361,53.06956 50.9963,0 9.67142,-53.15132 a 210.25631,210.25574 0 0 0 38.43533,-10.6972 l 35.20854,41.4986 44.16332,-25.49879 -18.78972,-51.8228 a 210.25631,210.25574 0 0 0 27.57717,-27.76239 l 52.14087,18.65815 25.49752,-44.1646 -42.91911,-36.10274 a 210.25631,210.25574 0 0 0 9.92052,-37.09403 l 55.23226,-10.04954 0,-50.9963 -55.81604,-9.91159 a 210.25631,210.25574 0 0 0 -9.93458,-36.45531 l 43.44924,-36.86153 -25.49751,-44.16588 -53.61247,19.43994 a 210.25631,210.25574 0 0 0 -26.58461,-26.51434 l 19.26876,-53.85264 -44.16333,-25.49751 -36.7274,43.66385 a 210.25631,210.25574 0 0 0 -36.34672,-9.98312 l -10.17346,-55.91441 -50.9963,0 z m 25.51667,179.8852 a 81.732362,81.732355 0 0 1 81.73255,81.73255 81.732362,81.732355 0 0 1 -81.73255,81.73255 81.732362,81.732355 0 0 1 -81.73255,-81.73255 81.732362,81.732355 0 0 1 81.73255,-81.73255 z m 0,32.69327 a 49.039422,49.039416 0 0 0 -49.03928,49.03928 49.039422,49.039416 0 0 0 49.03928,49.03928 49.039422,49.039416 0 0 0 49.03928,-49.03928 49.039422,49.039416 0 0 0 -49.03928,-49.03928 z"
       style="color:#000000;clip-rule:nonzero;display:inline;overflow:visible;visibility:visible;opacity:1;isolation:auto;mix-blend-mode:normal;color-interpolation:sRGB;color-interpolation-filters:linearRGB;solid-color:#000000;solid-opacity:1;fill:#ffffff;fill-opacity:1;fill-rule:nonzero;stroke:#273b50;stroke-width:0.03270222;stroke-miterlimit:4;stroke-dasharray:none;stroke-opacity:1;color-rendering:auto;image-rendering:auto;shape-rendering:auto;text-rendering:auto;enable-background:accumulate" />
  </g>
</svg>
